<?xml version="1.0" encoding="UTF-8"?>
<svg xmlns="http://www.w3.org/2000/svg" version="1.1" viewBox="0 0 1000 1000">
  <defs>
    <style>
      .cls-1, .cls-2 {
        fill: #231f20;
      }

      .cls-3 {
        fill: #fff;
      }

      .cls-2 {
        stroke: #231f20;
        stroke-miterlimit: 10;
        stroke-width: 2px;
      }
    </style>
  </defs>
  <!-- Generator: Adobe Illustrator 28.7.1, SVG Export Plug-In . SVG Version: 1.2.0 Build 142)  -->
  <g>
    <g id="Layer_1">
      <circle class="cls-1" cx="500" cy="500" r="474.6"/>
      <circle class="cls-3" cx="500" cy="500" r="313.94"/>
      <circle class="cls-1" cx="500" cy="500" r="50.92"/>
      <g>
        <g>
          <path class="cls-2" d="M590.08,430"/>
          <path class="cls-2" d="M537.8,392.47"/>
          <path class="cls-2" d="M705.35,384.43"/>
          <path class="cls-2" d="M590.08,430"/>
        </g>
        <path class="cls-1" d="M544.47,401.6l33.52,25.93c4.77,3.69,11.12,4.61,16.74,2.43l99.3-38.54c12.6-4.89,14.89-21.73,4.06-29.81l-132.82-99.13c-11.34-8.46-27.48-.37-27.48,13.78v111.74c0,5.32,2.46,10.34,6.67,13.6Z"/>
        <ellipse class="cls-1" cx="623.27" cy="325.1" rx="33.06" ry="101.23" transform="translate(-14.38 621.01) rotate(-52.44)"/>
      </g>
      <g>
        <g>
          <path class="cls-2" d="M586.7,557.39"/>
          <path class="cls-2" d="M610.2,497.48"/>
          <path class="cls-2" d="M659.26,657.89"/>
          <path class="cls-2" d="M586.7,557.39"/>
        </g>
        <path class="cls-1" d="M603,506.2l-16.87,38.87c-2.4,5.53-1.73,11.92,1.77,16.83l61.81,86.75c7.84,11,24.73,9.08,29.89-3.4l63.36-153.14c5.41-13.08-6.41-26.72-20.12-23.24l-108.3,27.52c-5.16,1.31-9.42,4.94-11.54,9.82Z"/>
        <ellipse class="cls-1" cx="696.54" cy="563.73" rx="101.23" ry="33.06" transform="translate(-96.73 980.47) rotate(-66.7)"/>
      </g>
      <g>
        <g>
          <path class="cls-2" d="M462.49,601.65"/>
          <path class="cls-2" d="M526.82,599.61"/>
          <path class="cls-2" d="M398.77,707.97"/>
          <path class="cls-2" d="M462.49,601.65"/>
        </g>
        <path class="cls-1" d="M515.97,596.43l-42.38-.17c-6.03-.02-11.63,3.11-14.76,8.26l-55.33,91.02c-7.02,11.55,1.41,26.3,14.92,26.13l165.72-2.18c14.15-.19,22.03-16.43,13.42-27.66l-68.01-88.66c-3.24-4.22-8.25-6.71-13.57-6.73Z"/>
        <ellipse class="cls-1" cx="500" cy="705.09" rx="33.06" ry="101.23" transform="translate(-205.68 1204.24) rotate(-89.93)"/>
      </g>
      <g>
        <g>
          <path class="cls-2" d="M389.9,497.08"/>
          <path class="cls-2" d="M412.13,557.47"/>
          <path class="cls-2" d="M268.9,470.16"/>
          <path class="cls-2" d="M389.9,497.08"/>
        </g>
        <path class="cls-1" d="M411.73,546.17l-13.21-40.27c-1.88-5.73-6.62-10.06-12.5-11.4l-103.83-23.78c-13.17-3.02-24.51,9.64-20.08,22.4l54.37,156.56c4.64,13.37,22.54,15.72,30.48,4l62.67-92.52c2.98-4.41,3.76-9.95,2.1-15Z"/>
        <ellipse class="cls-1" cx="303.59" cy="565.31" rx="33.06" ry="101.23" transform="translate(-162.36 124.14) rotate(-18.33)"/>
      </g>
      <g>
        <g>
          <path class="cls-2" d="M462.02,393.41"/>
          <path class="cls-2" d="M411.04,432.69"/>
          <path class="cls-2" d="M451.52,269.9"/>
          <path class="cls-2" d="M462.02,393.41"/>
        </g>
        <path class="cls-1" d="M421.7,428.92l34.47-24.65c4.9-3.51,7.61-9.33,7.14-15.34l-8.36-106.19c-1.06-13.47-16.53-20.51-27.38-12.46l-133.13,98.7c-11.37,8.43-8.26,26.21,5.3,30.28l107.02,32.13c5.1,1.53,10.62.61,14.95-2.48Z"/>
        <ellipse class="cls-1" cx="371.1" cy="331.46" rx="101.23" ry="33.06" transform="translate(-123.71 279.09) rotate(-35.73)"/>
      </g>
    </g>
  </g>
</svg>